<?xml version="1.0" standalone="no"?>
<!DOCTYPE svg PUBLIC "-//W3C//DTD SVG 20010904//EN"
 "http://www.w3.org/TR/2001/REC-SVG-20010904/DTD/svg10.dtd">
<svg version="1.0" xmlns="http://www.w3.org/2000/svg"
 width="991.000000pt" height="706.000000pt" viewBox="0 0 991.000000 706.000000"
 preserveAspectRatio="xMidYMid meet">

<g transform="translate(0.000000,706.000000) scale(0.100000,-0.100000)"
fill="#000000" stroke="none">
<path d="M3013 6672 c22 -24 22 -73 0 -120 -10 -20 -18 -55 -17 -77 0 -41 23
-115 35 -115 4 0 10 -20 14 -45 5 -39 2 -53 -19 -90 -14 -24 -26 -49 -26 -56
0 -7 -6 -20 -13 -28 -17 -21 -38 -116 -30 -137 3 -8 0 -33 -7 -53 -9 -28 -9
-43 -1 -59 9 -17 7 -26 -14 -50 -26 -31 -32 -67 -14 -92 8 -11 9 -6 5 20 -5
28 -1 42 16 64 20 23 23 40 24 114 1 103 9 145 35 190 11 19 17 37 14 42 -3 5
-1 11 5 15 6 3 17 23 26 43 18 43 14 100 -12 150 -25 51 -29 105 -10 161 21
65 21 127 0 135 -26 10 -28 7 -11 -12z"/>
<path d="M4935 6225 c17 -14 42 -25 56 -25 25 0 28 -4 62 -77 5 -11 6 -26 3
-31 -4 -6 3 -27 14 -46 l19 -36 -27 -25 c-15 -14 -34 -25 -43 -25 -23 0 -64
-41 -82 -81 -8 -19 -17 -58 -20 -88 -4 -49 -9 -59 -43 -88 -59 -52 -63 -54
-75 -48 -6 4 -7 -3 -3 -19 4 -19 2 -28 -10 -32 -9 -3 -13 -10 -10 -15 12 -19
-8 -30 -23 -12 -17 22 -14 11 12 -40 18 -35 18 -40 3 -70 -9 -18 -19 -40 -22
-50 -3 -10 -10 -16 -15 -12 -5 3 -13 0 -17 -6 -5 -8 -3 -9 6 -4 10 6 11 4 5
-11 -4 -10 -10 -55 -12 -99 -4 -62 -10 -84 -25 -99 -12 -11 -16 -21 -10 -25 6
-4 3 -21 -9 -45 -10 -22 -19 -61 -19 -86 0 -50 -12 -95 -38 -147 -12 -23 -13
-35 -5 -45 9 -10 6 -22 -10 -49 -22 -35 -42 -40 -60 -15 -5 6 -5 -3 -2 -21 5
-25 2 -38 -14 -55 l-21 -22 0 22 c0 12 -9 39 -20 59 -11 21 -20 46 -20 57 0
11 -6 27 -14 35 -29 34 -27 56 14 136 22 43 40 84 40 91 0 8 6 14 14 14 7 0
16 14 20 31 8 42 8 59 -2 59 -5 0 -9 -13 -9 -29 0 -17 -5 -36 -11 -44 -7 -8
-31 -52 -55 -99 -38 -77 -44 -84 -64 -77 -15 5 -27 24 -36 56 -15 50 -9 86 17
107 27 22 107 118 102 123 -6 7 -16 -4 -89 -90 -31 -37 -58 -73 -58 -80 -4
-39 19 -93 55 -126 14 -14 26 -32 26 -41 0 -9 9 -25 20 -35 11 -10 20 -28 20
-40 0 -12 6 -40 14 -62 9 -25 11 -53 7 -74 -6 -28 -11 -34 -34 -35 -15 -1 -30
-4 -34 -8 -4 -3 -18 4 -31 16 l-25 23 14 -22 c8 -13 17 -23 21 -23 16 0 7 -33
-23 -88 -46 -83 -56 -93 -86 -81 -14 5 -28 7 -31 4 -4 -3 4 -8 16 -12 27 -7
29 -23 2 -30 -11 -3 -20 -12 -20 -19 0 -17 -12 -18 -30 -1 -8 6 -6 2 4 -10 14
-17 16 -29 10 -55 -11 -45 -11 -61 -1 -75 5 -7 2 -24 -7 -42 -9 -16 -16 -37
-16 -46 0 -9 -9 -15 -24 -15 -14 0 -31 -7 -40 -15 -8 -8 -18 -15 -23 -15 -4
-1 -21 -21 -36 -45 -16 -25 -32 -45 -35 -45 -4 0 -13 14 -21 31 -8 18 -22 34
-32 36 -11 3 -19 9 -19 14 0 5 -11 9 -24 9 -13 0 -26 6 -29 14 -3 7 -18 16
-34 19 -33 7 -93 62 -93 87 0 9 -8 32 -17 51 -22 42 -26 220 -5 226 6 3 12 10
12 15 0 12 70 78 82 78 10 0 72 91 91 135 10 22 32 50 50 62 31 21 34 22 76 7
24 -8 48 -13 54 -11 12 4 -83 37 -105 37 -19 0 -84 -70 -93 -100 -4 -14 -18
-37 -31 -52 -12 -16 -25 -37 -29 -48 -3 -11 -12 -20 -19 -20 -23 0 -104 -96
-115 -136 -15 -59 2 -191 28 -217 6 -6 11 -26 11 -45 l0 -33 -31 18 c-17 10
-45 38 -62 62 -28 41 -29 46 -18 78 10 27 10 41 1 64 -7 16 -15 27 -18 25 -9
-10 -42 15 -42 32 0 9 14 29 32 44 21 17 32 37 34 56 5 74 17 115 40 135 13
11 24 26 24 33 0 6 11 15 25 18 14 4 29 14 32 24 4 9 20 33 35 53 33 41 98 64
211 74 76 6 134 29 143 57 3 10 10 18 15 18 5 0 9 8 9 19 0 10 8 29 19 42 10
13 21 34 25 47 4 12 12 22 17 22 5 0 9 6 9 13 0 7 16 35 35 62 63 92 130 255
104 255 -5 0 -9 -10 -9 -23 0 -13 -7 -32 -15 -43 -8 -10 -19 -36 -25 -57 -6
-21 -28 -64 -48 -97 -65 -103 -101 -164 -129 -217 -33 -65 -62 -80 -177 -91
l-88 -8 5 35 c13 103 117 247 217 300 52 28 78 61 90 114 6 27 17 64 24 82 11
26 11 33 2 29 -7 -3 -21 -39 -31 -81 -17 -75 -49 -123 -80 -123 -14 0 -135
-118 -178 -173 -15 -20 -30 -45 -32 -55 -2 -11 -11 -34 -19 -51 -9 -16 -16
-42 -16 -56 0 -20 -8 -29 -32 -40 -29 -12 -93 -79 -93 -97 0 -9 -15 -23 -26
-24 -5 -1 -13 -2 -19 -3 -5 0 -10 -6 -10 -13 0 -7 -11 -23 -24 -37 -24 -26
-52 -124 -41 -142 4 -5 -7 -21 -22 -35 l-28 -26 -14 33 c-16 39 -96 85 -130
76 -11 -3 -28 1 -38 8 -16 12 -16 14 -2 20 16 6 22 35 7 35 -4 0 -8 -7 -8 -15
0 -8 -5 -15 -11 -15 -5 0 -7 4 -4 10 3 6 -1 7 -9 4 -9 -3 -16 -10 -16 -15 0
-19 -29 5 -39 33 -8 23 -7 36 5 60 14 27 15 46 5 117 -1 2 -8 1 -16 -2 -7 -3
-24 2 -36 12 -21 16 -21 20 -9 67 11 45 11 53 -5 77 -9 15 -23 27 -30 27 -7 0
-15 7 -19 15 -3 9 -18 15 -34 15 -63 0 -75 55 -31 143 19 35 22 37 70 37 40 0
55 5 75 25 23 23 24 29 18 88 -10 100 8 117 141 132 33 4 65 10 70 15 6 4 21
11 35 15 28 8 70 43 70 58 0 6 18 35 41 66 l40 56 -45 -50 c-25 -27 -46 -54
-46 -60 0 -14 -42 -55 -57 -55 -5 0 -23 -6 -39 -14 -16 -8 -60 -19 -99 -25
-38 -5 -80 -13 -92 -17 -30 -8 -29 9 1 39 27 27 47 127 26 127 -6 0 -9 4 -6 9
10 15 -25 103 -39 97 -7 -2 -28 9 -48 25 -28 23 -36 26 -41 14 -3 -8 -11 -14
-17 -13 -7 2 -18 -8 -25 -22 -7 -14 -22 -25 -32 -26 -10 -1 -27 -6 -38 -12
-15 -8 -29 -6 -60 7 -23 11 -47 15 -59 11 -11 -4 -36 -6 -55 -3 -33 3 -33 3
-10 -7 14 -6 40 -8 58 -5 19 3 39 2 45 -3 19 -15 60 -21 82 -12 11 4 30 3 42
-3 18 -8 27 -6 44 9 20 18 53 20 74 4 6 -4 21 -10 35 -13 15 -4 26 -14 27 -24
0 -10 1 -29 2 -43 3 -39 -3 -64 -20 -101 -45 -92 -47 -104 -34 -136 13 -30 19
-63 16 -90 -2 -25 -33 -42 -87 -49 -62 -7 -72 -18 -99 -97 -18 -54 -14 -78 18
-104 23 -19 25 -53 3 -53 -15 0 -56 42 -56 57 0 16 -48 99 -66 114 -13 10 -21
10 -47 -1 -18 -7 -63 -16 -102 -20 l-70 -7 63 -1 c42 -1 76 4 99 15 36 17 36
17 59 -12 12 -16 30 -49 40 -74 23 -63 41 -81 81 -81 29 0 33 3 33 25 0 16 6
25 15 25 8 0 15 -4 15 -10 0 -5 7 -10 16 -10 36 0 56 -59 34 -100 -17 -32 -2
-68 35 -81 31 -12 33 -14 28 -53 -15 -139 -5 -164 76 -186 57 -15 57 -20 0
-82 -36 -38 -42 -41 -50 -25 -7 12 -22 17 -49 17 -22 0 -56 9 -77 21 -28 16
-47 19 -76 15 -24 -4 -45 -2 -53 5 -12 10 -21 6 -44 -16 -28 -27 -32 -28 -68
-17 -22 7 -46 12 -53 12 -25 -1 18 -20 63 -28 38 -8 46 -6 63 14 11 12 24 20
30 16 5 -4 38 -7 72 -7 36 0 68 -6 75 -13 6 -6 29 -12 50 -12 63 0 71 -50 18
-117 -10 -13 -17 -30 -14 -38 3 -7 -5 -24 -18 -38 -39 -42 -49 -57 -40 -57 10
0 72 75 72 87 0 17 57 118 80 142 14 14 42 45 61 69 l37 43 36 -22 c43 -25 56
-46 56 -89 0 -30 -11 -50 -72 -124 -16 -19 -28 -37 -28 -41 0 -9 52 47 85 91
21 26 21 26 53 10 33 -17 38 -34 23 -86 -4 -14 -3 -34 3 -45 25 -46 77 -103
106 -115 l31 -13 -30 -29 c-16 -16 -28 -35 -25 -42 7 -18 -18 -40 -123 -111
-29 -19 -78 -44 -108 -56 -30 -11 -55 -26 -55 -32 0 -8 -3 -8 -11 0 -8 8 -22
8 -46 1 -25 -7 -44 -6 -61 1 -32 15 -37 9 -12 -14 17 -15 26 -17 55 -8 19 6
44 9 56 6 12 -3 24 -2 28 4 3 5 26 17 51 26 25 9 60 27 79 39 19 13 42 28 51
33 56 34 111 83 117 105 3 14 19 37 33 52 25 24 29 26 46 13 11 -8 26 -15 35
-15 9 0 24 -9 34 -20 9 -10 20 -18 24 -17 23 6 90 -54 91 -82 0 -7 11 -26 25
-43 32 -38 31 -46 -2 -54 -33 -8 -127 -56 -132 -67 -2 -5 -15 -13 -29 -18 -21
-8 -23 -12 -12 -19 12 -7 11 -13 -7 -32 -12 -13 -23 -36 -25 -53 -3 -25 -12
-34 -64 -58 -61 -30 -104 -76 -104 -113 0 -10 -6 -29 -13 -40 -35 -61 -36 -67
-7 -34 17 20 33 51 37 73 7 43 40 81 92 104 38 16 39 16 47 -24 5 -24 2 -31
-14 -35 -23 -6 -34 -52 -26 -112 5 -33 2 -52 -12 -77 -20 -37 -63 -79 -79 -79
-5 0 -23 -11 -40 -25 l-30 -24 50 25 c27 13 58 33 70 43 11 10 39 21 62 25 38
5 46 3 73 -22 16 -16 30 -33 30 -38 0 -19 54 -84 71 -84 9 0 34 -19 54 -42 27
-32 32 -35 19 -13 -27 46 -55 74 -69 69 -15 -6 -65 51 -65 73 0 29 -58 75 -93
73 -48 -3 -49 -2 -32 24 13 19 15 38 9 83 -6 55 -4 62 20 88 20 22 25 35 21
56 -4 16 -1 30 5 34 6 4 9 19 5 35 -4 20 0 35 17 56 13 16 28 38 34 48 6 11
19 24 30 30 10 6 35 21 55 33 51 33 81 30 118 -12 36 -41 38 -53 14 -71 -17
-12 -17 -13 3 -14 13 0 24 8 27 20 13 50 39 2 53 -97 8 -54 32 -76 169 -157
61 -35 136 -86 168 -112 32 -26 73 -52 92 -58 31 -11 32 -12 16 -32 -16 -20
-99 -54 -132 -54 -9 0 -30 7 -45 15 -16 8 -52 19 -81 25 -29 6 -55 16 -58 21
-12 18 -91 10 -120 -13 -16 -12 -36 -23 -44 -23 -75 -6 -76 -6 -56 -14 26 -10
86 4 101 23 21 30 137 14 243 -32 33 -14 85 -13 139 4 26 7 31 -16 9 -38 -23
-22 -39 -59 -33 -74 3 -8 -6 -20 -24 -29 -16 -8 -32 -21 -36 -27 -5 -7 5 -5
20 6 l29 18 -7 -26 c-18 -76 -18 -82 5 -41 12 22 24 62 25 89 2 32 11 57 23
70 11 12 27 40 36 63 15 39 19 42 63 47 26 3 63 8 83 11 42 8 55 -7 83 -92 19
-57 46 -83 86 -83 14 0 34 -7 45 -16 18 -13 20 -25 18 -122 -2 -117 4 -143 54
-245 18 -37 33 -83 33 -102 0 -18 9 -50 21 -70 16 -26 18 -39 10 -49 -16 -20
-109 -75 -115 -69 -9 9 -73 14 -188 15 -118 1 -122 0 -197 -72 -36 -34 -48
-40 -69 -35 -27 7 -77 28 -102 44 -8 5 -23 12 -32 15 -10 3 -20 20 -24 41 -3
19 -10 38 -15 41 -5 3 -4 14 2 25 5 11 8 30 6 42 -4 19 -4 18 -6 -5 0 -15 -6
-30 -12 -33 -19 -12 19 -125 43 -125 5 0 22 -8 36 -18 39 -26 106 -45 131 -37
12 3 38 22 59 41 20 19 43 34 50 34 6 0 12 4 12 9 0 14 55 23 124 21 78 -2
110 -5 122 -12 17 -10 94 -8 94 2 0 6 12 16 27 23 15 6 43 27 63 44 19 18 38
33 41 33 3 0 14 -15 24 -34 21 -39 68 -64 130 -69 58 -4 67 -12 53 -45 -7 -15
-17 -32 -23 -37 -7 -6 -15 -20 -19 -32 -4 -12 -21 -34 -37 -48 -17 -14 -26
-25 -20 -25 15 0 58 46 66 70 5 16 12 19 28 14 30 -10 46 -33 47 -69 0 -16 7
-43 15 -59 15 -29 13 -41 -7 -41 -6 0 -13 -6 -16 -13 -3 -11 0 -12 17 -3 18
10 21 9 21 -8 0 -11 9 -30 20 -43 11 -12 30 -39 43 -58 28 -43 58 -58 139 -71
35 -6 72 -14 83 -19 11 -5 33 -13 50 -18 22 -6 31 -16 36 -39 5 -25 3 -32 -12
-36 -29 -8 -6 -57 26 -57 7 0 7 3 0 8 -5 4 -12 16 -13 26 -3 17 -1 18 12 7 8
-7 18 -21 21 -31 3 -11 15 -22 26 -25 26 -9 24 -18 -9 -37 -56 -33 -137 -117
-151 -155 -9 -23 -44 -68 -92 -115 -44 -43 -74 -78 -69 -78 6 0 10 5 10 10 0
6 5 10 11 10 6 0 8 -9 4 -21 -5 -15 -4 -19 4 -15 6 4 11 3 11 -2 0 -24 -175
-32 -236 -12 -18 6 -43 21 -56 33 -21 20 -24 31 -24 112 -1 50 -3 112 -4 139
-3 41 -5 45 -12 26 -5 -13 -6 -38 -2 -54 8 -32 6 -167 -1 -175 -3 -2 -14 4
-25 14 -18 16 -24 17 -59 5 -41 -13 -63 -8 -55 14 3 7 -9 24 -25 37 -78 61
-90 69 -108 69 -27 0 -68 30 -134 99 -46 49 -59 69 -59 94 -1 45 -15 58 -102
97 -43 19 -78 39 -78 43 0 5 -16 29 -35 54 -19 25 -32 50 -29 55 8 12 51 29
94 37 21 4 35 12 35 21 0 8 4 21 9 28 5 8 4 18 -3 25 -6 6 -11 20 -11 30 0 16
-2 17 -15 7 -14 -12 -14 -15 4 -34 16 -18 18 -24 7 -38 -7 -10 -23 -18 -34
-18 -11 0 -24 -4 -27 -10 -3 -6 -16 -10 -29 -10 -13 0 -31 -9 -41 -20 -15 -17
-16 -24 -6 -46 24 -54 75 -104 130 -129 102 -46 105 -49 112 -85 3 -19 13 -48
22 -64 9 -16 14 -33 11 -38 -7 -11 -44 -10 -44 1 0 5 -15 12 -33 15 -18 3 -39
15 -47 26 -8 11 -20 20 -26 20 -6 0 -14 9 -17 20 -6 22 -41 27 -67 10 -11 -8
-8 -9 13 -4 22 5 29 3 33 -12 6 -21 62 -61 100 -70 13 -3 28 -12 32 -20 6 -11
16 -11 46 -3 38 10 40 10 85 -35 27 -26 59 -48 78 -52 17 -3 41 -15 52 -25 11
-11 24 -19 28 -19 5 0 21 -12 36 -26 l28 -25 -30 -37 c-53 -68 -59 -71 -153
-74 -72 -3 -89 0 -106 16 -18 15 -26 16 -51 8 -27 -9 -33 -8 -46 11 -8 12 -15
34 -15 49 0 18 -13 42 -35 67 -19 21 -35 45 -35 54 0 9 -10 32 -21 52 -18 31
-20 40 -10 62 16 36 6 41 -12 6 -13 -25 -13 -32 0 -65 8 -21 19 -38 25 -38 5
0 6 -9 3 -21 -5 -16 1 -28 28 -52 26 -25 36 -43 41 -79 4 -27 12 -48 17 -48 6
0 8 -4 4 -9 -9 -15 -117 -6 -152 13 -29 15 -31 19 -21 41 12 26 3 111 -13 121
-27 16 -29 56 -8 125 12 39 19 72 16 75 -7 7 -47 -129 -47 -159 0 -13 7 -30
15 -37 8 -7 15 -21 15 -31 0 -10 5 -21 10 -24 16 -10 12 -55 -5 -61 -8 -4 -30
1 -49 10 -19 9 -40 16 -48 16 -8 0 -23 6 -34 14 -18 14 -19 15 -1 45 10 17 22
62 27 99 5 37 13 90 18 117 6 28 6 56 1 65 -5 10 -8 -5 -9 -42 0 -31 -4 -59
-9 -62 -5 -3 -12 -34 -16 -68 -8 -68 -28 -128 -43 -128 -16 0 -62 68 -62 91 0
13 8 32 18 43 20 22 52 115 52 148 0 27 -18 58 -34 58 -17 0 -58 74 -51 92 3
8 1 27 -4 41 -9 23 -16 27 -51 27 -22 0 -40 5 -40 10 0 6 -8 18 -18 28 -16 16
-18 36 -15 202 2 125 7 186 15 191 8 5 5 17 -10 41 -22 34 -31 23 -11 -14 8
-14 8 -23 0 -31 -7 -7 -11 -64 -11 -154 0 -129 -2 -142 -17 -136 -11 4 -14 3
-9 -6 5 -7 1 -18 -10 -25 -13 -10 -14 -15 -4 -21 8 -5 11 -4 7 2 -4 6 2 13 13
16 17 4 20 0 20 -27 0 -17 7 -42 16 -54 15 -21 14 -22 -13 -22 -17 0 -40 12
-61 31 -22 20 -40 29 -53 26 -10 -3 -19 -1 -19 4 0 5 -11 9 -24 9 -51 0 -86
12 -86 30 0 10 -7 23 -16 31 -11 9 -15 25 -12 52 3 32 2 36 -9 21 -14 -19 -43
-12 -43 10 0 12 -7 14 -30 10 -81 -17 -113 27 -111 150 1 88 -3 100 -37 110
-24 8 -20 28 5 24 9 -2 18 4 20 12 3 9 1 11 -4 5 -13 -16 -79 -12 -99 6 -11
10 -28 19 -39 21 -13 2 -25 21 -41 66 -12 34 -29 71 -38 80 -12 14 -13 21 -4
30 9 9 8 12 -5 12 -9 0 -17 4 -17 8 0 5 -12 14 -26 21 -25 11 -25 13 -10 30
13 15 14 18 2 18 -8 0 -14 -5 -13 -11 1 -6 -4 -10 -11 -8 -8 1 -11 -2 -8 -7
15 -23 -87 -29 -110 -6 -11 11 -26 13 -53 9 -24 -4 -41 -2 -45 5 -12 18 -54
13 -75 -10 -16 -17 -26 -19 -64 -14 -26 4 -53 3 -64 -4 -16 -8 -27 -5 -54 14
-18 14 -40 25 -48 25 -15 1 -96 68 -89 75 2 1 17 10 33 18 23 12 25 16 11 17
-11 0 -34 -11 -52 -25 -24 -18 -45 -25 -78 -25 l-44 0 34 63 c44 81 54 104 54
126 0 10 11 28 25 41 14 13 25 29 25 37 0 7 12 39 27 70 31 68 39 90 48 122 4
12 18 39 31 58 16 23 24 50 24 77 0 23 4 36 8 30 13 -20 54 -36 64 -26 6 6 1
12 -15 16 -35 8 -42 44 -11 58 13 6 24 17 24 24 0 7 10 19 23 25 12 7 36 29
54 49 19 22 54 46 87 59 44 18 53 26 49 42 -4 15 0 19 20 19 14 0 27 6 30 14
5 11 0 13 -25 5 -34 -9 -49 -25 -42 -44 3 -7 -14 -19 -38 -28 -56 -22 -65 -21
-78 2 -15 29 -12 39 5 17 17 -23 19 -17 5 18 -5 14 -13 26 -18 26 -12 0 -8
-51 5 -75 8 -14 7 -25 -5 -42 -33 -51 -96 -59 -121 -16 -8 14 -10 15 -11 3 0
-21 20 -40 41 -40 13 0 7 -11 -22 -40 -21 -21 -39 -46 -39 -55 0 -18 -9 -19
-44 -5 -17 6 -26 6 -26 0 0 -6 6 -10 13 -10 7 0 21 -6 31 -13 16 -12 15 -19
-19 -112 -20 -55 -47 -123 -61 -152 -13 -28 -24 -57 -24 -64 0 -7 -11 -25 -25
-39 -14 -14 -27 -41 -29 -58 -2 -18 -10 -40 -17 -50 -8 -9 -23 -34 -34 -55
-10 -21 -27 -43 -37 -48 -26 -14 -95 7 -123 37 -12 13 -30 24 -39 24 -9 0 -16
6 -16 13 -1 22 -70 88 -100 94 -28 5 -43 23 -20 23 14 0 90 70 90 83 0 6 17
26 38 45 20 18 28 29 17 24 -30 -15 -65 -51 -65 -66 0 -18 -49 -51 -75 -51
-11 0 -20 -6 -20 -14 0 -8 -6 -16 -12 -18 -7 -3 -13 1 -13 7 0 19 31 80 41 80
5 0 9 11 9 25 0 14 9 42 20 62 11 21 20 48 20 61 0 29 21 71 48 95 30 27 127
76 178 88 24 6 44 15 44 19 0 12 -108 -24 -168 -56 -61 -32 -106 -89 -115
-148 -3 -21 -13 -46 -21 -55 -9 -10 -19 -32 -22 -51 -4 -18 -18 -50 -32 -71
-20 -30 -28 -36 -39 -28 -7 6 -13 18 -13 25 0 8 -6 11 -15 8 -31 -12 -139 75
-168 135 -22 44 -21 53 3 69 21 13 27 56 10 67 -14 9 -12 32 3 32 58 2 103 18
136 48 20 19 49 45 65 58 24 20 27 27 18 43 -11 18 -11 18 -12 -3 0 -12 -12
-31 -27 -42 -16 -11 -40 -32 -54 -46 -22 -23 -77 -44 -115 -45 -7 0 -13 23
-16 55 -5 58 -26 92 -61 97 -25 4 -73 87 -64 111 5 12 18 17 47 17 55 0 84 15
71 38 -7 12 -3 22 15 39 14 13 32 23 40 23 7 0 14 9 14 20 0 11 6 21 13 21 40
5 57 2 102 -20 43 -21 63 -24 145 -22 76 1 213 7 252 10 4 1 13 8 22 16 8 8
23 16 33 18 38 7 101 47 106 68 9 33 -4 112 -16 100 -6 -6 -6 -19 0 -38 19
-54 -11 -95 -84 -114 -24 -6 -43 -15 -43 -20 0 -5 -4 -9 -8 -9 -4 0 -7 43 -7
95 1 81 4 97 20 109 18 13 18 14 -7 9 -36 -7 -41 -25 -27 -94 9 -46 9 -62 -1
-73 -6 -9 -9 -19 -7 -24 17 -26 -15 -33 -164 -39 -152 -6 -155 -6 -206 21 -63
32 -156 35 -151 4 2 -9 -12 -30 -31 -47 -24 -22 -32 -36 -28 -51 6 -23 -27
-36 -67 -26 -45 11 -36 106 11 106 7 0 13 4 13 10 0 5 17 18 37 29 21 10 49
31 62 45 14 14 30 26 38 26 7 0 13 5 13 10 0 19 34 48 65 54 19 4 37 18 49 39
59 97 60 100 61 187 1 47 7 105 13 130 6 25 12 77 12 116 0 65 3 74 30 105 16
19 30 39 29 44 0 6 -15 -8 -34 -30 -30 -35 -35 -47 -37 -100 -2 -76 -2 -79
-17 -148 -7 -32 -12 -84 -11 -115 3 -82 3 -84 -20 -77 -11 3 -30 -1 -45 -11
-28 -18 -35 -40 -7 -23 12 8 25 8 35 3 14 -8 13 -14 -11 -50 -15 -23 -41 -47
-58 -54 -17 -7 -39 -25 -50 -41 -10 -16 -24 -29 -31 -29 -6 0 -20 -11 -30 -23
-19 -25 -57 -49 -65 -42 -2 2 -24 -13 -48 -35 l-44 -39 -41 42 c-55 55 -93
125 -45 82 11 -10 20 -13 20 -7 0 5 -12 21 -28 34 -24 20 -72 87 -72 100 0 3
10 3 22 1 19 -3 27 4 45 46 12 28 20 57 17 64 -6 16 40 57 65 57 28 0 61 53
40 65 -5 4 -12 -7 -15 -24 -5 -22 -12 -31 -27 -31 -11 0 -36 -12 -54 -26 -26
-20 -33 -32 -29 -47 3 -11 -2 -37 -11 -56 -21 -47 -20 -46 -37 -32 -8 7 -20
10 -26 6 -12 -7 -14 -35 -2 -35 9 0 36 -60 29 -66 -3 -3 -24 28 -47 70 -33 61
-46 76 -65 76 -12 0 -25 7 -29 15 -6 15 -35 10 -48 -9 -4 -6 -12 -5 -22 3 -12
10 -16 10 -16 1 0 -6 -9 -23 -19 -36 -11 -13 -17 -32 -15 -42 3 -11 -6 -24
-26 -37 -18 -11 -42 -41 -55 -66 -19 -36 -31 -48 -56 -53 -17 -3 -58 -18 -90
-32 -37 -17 -65 -24 -76 -19 -10 4 -29 9 -43 11 -14 2 -43 7 -65 13 -58 14
-125 20 -125 11 0 -4 21 -10 47 -13 27 -2 84 -12 128 -21 l80 -18 57 26 c31
14 67 26 80 26 23 1 58 21 58 34 0 17 52 86 61 81 5 -4 16 -2 23 4 8 7 18 11
22 10 27 -5 36 2 30 24 -7 28 22 64 59 73 37 9 66 -15 99 -82 16 -33 38 -65
48 -72 10 -7 18 -24 18 -37 0 -17 13 -33 45 -56 57 -41 99 -112 84 -141 -10
-18 -8 -45 4 -97 2 -8 11 -19 20 -26 9 -7 17 -17 17 -24 0 -6 9 -11 20 -11 21
0 60 -33 60 -50 0 -5 -12 -10 -26 -10 -14 0 -34 -4 -44 -10 -13 -7 -24 -5 -43
10 -14 11 -34 20 -45 20 -11 0 -28 12 -37 28 -22 33 -62 69 -93 82 -30 13 -46
55 -33 92 6 15 6 28 1 28 -24 0 -40 -15 -40 -37 0 -22 -3 -25 -27 -20 -21 4
-34 -2 -60 -28 -18 -18 -33 -43 -33 -54 0 -12 -6 -24 -14 -27 -8 -3 -19 -18
-25 -32 -6 -15 -15 -34 -20 -42 -5 -8 -21 -40 -35 -70 -20 -43 -36 -61 -69
-79 l-43 -24 -27 27 c-14 14 -33 26 -41 26 -9 0 -31 9 -50 19 -28 16 -44 18
-90 12 -31 -4 -59 -4 -62 1 -3 4 -34 8 -69 8 -84 0 -215 20 -215 32 0 6 -10 8
-23 5 -15 -4 -40 6 -82 34 -33 21 -69 39 -80 39 -11 0 -36 14 -54 30 -18 17
-38 29 -45 27 -16 -5 -14 -33 2 -29 7 1 26 -7 42 -18 15 -11 37 -20 48 -20 10
0 40 -16 65 -35 25 -19 51 -35 56 -35 6 0 11 -5 11 -11 0 -6 7 -8 16 -5 9 3
44 -1 77 -10 34 -9 93 -16 130 -16 38 1 78 -3 90 -7 13 -5 49 -6 82 -2 52 5
65 3 118 -24 48 -24 63 -37 78 -70 12 -28 18 -34 18 -19 1 17 49 64 66 64 10
0 5 -29 -16 -75 -13 -29 -19 -59 -16 -79 3 -17 -1 -45 -8 -63 -8 -17 -11 -41
-8 -52 10 -38 -55 -150 -92 -157 -5 -1 -28 -7 -50 -13 l-40 -10 52 3 c29 2 59
9 67 15 29 24 69 106 72 148 1 24 6 53 10 65 4 13 8 41 10 63 3 44 6 58 22 95
51 122 74 159 126 210 31 30 59 62 62 72 3 9 24 30 47 46 l42 28 25 -23 c14
-13 29 -23 35 -23 14 0 80 -70 88 -92 4 -11 17 -18 32 -18 15 0 34 -7 42 -16
14 -14 27 -15 68 -4 6 1 22 2 38 1 23 -1 27 -5 27 -30 0 -16 -7 -34 -15 -41
-13 -11 -12 -16 6 -41 l20 -28 -26 -22 c-30 -27 -31 -31 -4 -87 34 -69 67 -99
154 -140 11 -5 29 -19 39 -31 11 -11 23 -21 28 -21 4 0 22 -12 39 -27 17 -16
39 -28 48 -28 21 0 75 -44 84 -68 3 -9 18 -22 32 -27 15 -6 23 -14 20 -20 -4
-6 -19 -4 -42 5 -48 20 -49 20 -62 -15 -12 -36 -36 -48 -62 -32 -29 18 -55 14
-87 -13 -25 -21 -37 -24 -77 -20 -26 3 -58 14 -72 25 -33 26 -133 25 -133 -1
0 -5 10 -5 23 0 28 11 76 3 98 -16 36 -30 169 -34 169 -4 0 15 57 23 79 12 17
-10 19 -15 9 -42 -14 -41 -3 -131 19 -146 18 -14 12 -26 -15 -29 -38 -4 -164
-35 -181 -43 -10 -6 -26 -10 -37 -9 -39 1 -204 -53 -204 -67 0 -3 17 2 37 11
52 22 138 44 171 44 16 0 32 4 38 10 12 12 173 44 181 36 4 -3 1 -12 -5 -18
-7 -7 -12 -26 -12 -44 0 -17 -6 -37 -14 -43 -8 -7 -17 -27 -20 -46 -6 -32 -9
-34 -28 -24 -12 6 -40 13 -64 14 -23 2 -52 8 -64 15 -41 22 -41 4 1 -23 34
-22 51 -27 81 -24 27 3 45 -1 60 -13 18 -14 20 -22 12 -56 -4 -21 -7 -46 -6
-55 1 -9 -8 -25 -18 -34 -11 -10 -20 -27 -20 -38 0 -15 -3 -17 -14 -8 -11 9
-71 14 -136 10 -8 -1 -81 4 -162 10 -97 7 -156 8 -173 1 -14 -5 -38 -11 -53
-12 -33 -2 -122 23 -122 35 0 5 -12 6 -28 2 -15 -4 -33 -8 -39 -8 -18 0 -16
-12 4 -28 10 -9 14 -9 10 -2 -5 7 1 16 12 23 15 7 22 7 28 -3 4 -7 33 -19 63
-26 45 -10 64 -10 108 2 41 11 72 12 140 5 48 -5 140 -10 204 -11 64 -1 119
-5 122 -8 3 -2 -2 -25 -10 -49 -8 -24 -13 -52 -10 -63 6 -24 -11 -75 -39 -112
-12 -17 -26 -45 -29 -63 -8 -35 -17 -39 -38 -19 -21 21 -48 28 -48 12 0 -7 8
-16 18 -18 11 -3 8 -5 -9 -6 -22 -1 -65 23 -137 75 -12 9 -50 20 -85 25 -34 4
-74 11 -89 14 -16 4 -28 3 -28 -2 0 -5 6 -10 13 -11 98 -8 207 -40 207 -61 0
-4 18 -16 40 -26 22 -10 40 -21 40 -25 0 -4 18 -5 40 -3 43 5 46 2 30 -28 -12
-21 -40 -25 -58 -7 -9 9 -12 9 -12 1 0 -7 9 -14 19 -18 15 -5 19 -13 16 -37
-5 -39 -12 -45 -35 -30 -13 8 -20 8 -20 2 0 -6 14 -13 31 -17 30 -6 31 -7 25
-47 -4 -23 -14 -46 -22 -53 -8 -6 -15 -19 -15 -30 0 -10 0 -46 1 -80 1 -34 -4
-72 -10 -83 -6 -12 -9 -28 -6 -36 3 -8 -4 -28 -15 -43 -13 -17 -22 -47 -23
-73 -2 -25 -7 -51 -11 -59 -7 -12 -6 -12 7 -1 8 6 18 35 21 63 4 29 13 59 22
69 8 9 15 30 15 46 0 16 5 48 10 72 6 26 7 57 1 82 -7 34 -6 44 8 58 26 25 32
49 36 125 3 63 6 71 39 103 23 23 36 44 36 61 0 15 6 34 14 42 30 34 56 93 56
128 l0 35 55 -4 c40 -3 61 -11 75 -26 12 -12 31 -24 45 -28 15 -4 28 -17 34
-37 6 -16 13 -28 16 -25 8 8 -19 68 -31 68 -6 0 -31 13 -55 30 -29 19 -57 30
-80 30 -49 0 -68 23 -44 50 10 11 24 20 32 20 7 0 13 10 13 22 0 12 8 30 17
41 19 20 20 26 26 148 2 50 9 83 20 99 9 14 17 33 17 43 0 10 6 28 14 40 27
42 28 64 5 86 -16 15 -21 31 -21 63 1 47 26 118 42 118 5 0 13 12 16 26 5 21
11 24 28 19 11 -4 38 -9 58 -10 53 -4 62 -12 43 -41 -9 -14 -18 -53 -22 -87
-5 -53 -1 -76 22 -142 l27 -79 -43 -38 c-24 -20 -47 -38 -51 -38 -14 0 -28
-74 -16 -85 8 -7 9 -6 4 2 -7 13 18 83 31 83 4 0 22 14 40 30 18 17 34 30 37
30 2 0 7 -19 11 -42 9 -53 17 -68 55 -106 16 -17 30 -36 30 -42 0 -14 -49 -60
-65 -60 -7 0 -18 -7 -25 -15 -7 -8 -10 -15 -6 -15 9 0 90 53 94 62 5 11 32 -3
32 -17 0 -6 9 -23 21 -36 16 -19 19 -32 15 -73 -3 -27 -12 -56 -20 -65 -15
-18 -38 -68 -55 -120 -6 -19 -18 -42 -26 -50 -32 -33 -76 -96 -89 -125 -28
-65 -35 -86 -31 -86 2 0 17 26 32 58 25 51 52 92 99 145 13 16 35 69 61 150 3
9 12 17 19 17 8 0 17 14 21 30 4 25 10 30 33 30 21 0 30 -8 42 -32 8 -18 26
-55 39 -82 l23 -49 -24 -16 c-43 -28 -65 -50 -52 -51 6 0 12 5 12 10 0 6 5 10
11 10 6 0 22 9 36 20 25 19 61 19 88 0 22 -16 66 -20 85 -8 30 19 24 28 -9 15
-67 -25 -181 53 -181 123 0 32 -52 80 -79 73 -19 -5 -21 -2 -19 24 1 16 -8 45
-21 66 -15 25 -19 37 -10 37 8 0 30 16 49 37 20 20 69 51 110 69 41 18 76 38
78 44 3 8 -1 9 -14 2 -90 -46 -122 -61 -126 -57 -2 3 -22 -13 -43 -35 -49 -50
-74 -51 -99 -5 -11 19 -29 41 -42 50 -24 16 -53 121 -37 134 24 21 107 43 146
38 77 -10 132 -23 164 -40 18 -9 41 -17 53 -17 11 0 31 -9 43 -21 32 -30 55
-41 62 -29 3 5 1 10 -6 10 -7 0 -27 11 -45 25 -18 14 -41 25 -51 25 -10 0 -31
7 -48 16 -16 9 -49 21 -72 25 -133 27 -137 27 -188 8 -27 -10 -55 -19 -61 -19
-13 0 -51 96 -60 151 -5 30 -2 44 11 59 9 10 14 23 11 29 -10 16 12 61 31 61
10 0 31 -7 47 -15 22 -12 46 -14 91 -10 l62 6 41 -41 c22 -23 46 -39 51 -35 6
3 23 -3 37 -14 29 -23 74 -27 92 -9 8 8 15 8 26 -1 20 -16 86 -4 86 16 0 16 3
16 105 -8 28 -6 82 -11 121 -10 77 2 84 -2 120 -69 10 -19 25 -41 32 -48 6 -7
12 -24 12 -37 0 -12 8 -32 18 -44 18 -23 26 -28 113 -75 30 -16 58 -34 62 -40
4 -6 5 -40 2 -76 -3 -36 -2 -78 3 -94 10 -38 47 -65 92 -68 47 -3 108 -64 116
-117 4 -21 23 -29 101 -42 57 -9 78 -18 102 -41 25 -25 37 -29 73 -27 24 1 60
2 81 1 35 -2 37 -4 33 -28 -7 -36 14 -82 54 -121 27 -26 32 -37 27 -65 -7 -47
-30 -103 -42 -103 -9 0 -85 51 -110 74 -5 5 -26 29 -45 55 -38 50 -56 59 -114
61 -27 1 -44 8 -57 24 -15 19 -26 22 -56 19 -21 -3 -50 2 -65 10 -16 8 -40 11
-56 7 -21 -4 -39 2 -75 26 -26 17 -52 28 -59 26 -8 -4 -4 -8 10 -12 12 -4 22
-12 22 -17 0 -5 14 -14 30 -19 17 -6 30 -15 30 -19 0 -5 12 -5 28 -1 33 8 72
3 72 -11 0 -6 15 -7 40 -3 36 6 44 4 65 -19 20 -21 33 -26 73 -26 53 0 63 -8
130 -97 13 -17 37 -37 53 -44 16 -6 34 -20 40 -30 5 -11 17 -19 26 -19 13 0
14 -3 5 -12 -18 -18 -15 -63 6 -97 22 -36 88 -91 110 -91 23 0 102 -42 102
-55 0 -15 82 -42 145 -48 28 -3 70 0 95 6 39 10 50 10 80 -6 22 -11 47 -16 68
-13 19 3 30 1 27 -5 -4 -5 -12 -9 -20 -9 -25 0 -43 -29 -50 -82 -4 -28 -14
-58 -21 -66 -8 -7 -14 -19 -14 -26 0 -13 -64 -33 -128 -40 -49 -5 -72 -20 -72
-47 0 -10 -9 -23 -20 -29 -11 -6 -20 -20 -20 -30 0 -26 -6 -25 -42 5 -16 14
-40 25 -54 25 -20 0 -24 5 -24 29 0 23 -5 30 -27 36 -40 10 -53 24 -53 56 0
18 -6 30 -19 34 -10 3 -26 14 -35 24 -10 10 -25 17 -34 15 -9 -2 -22 -1 -27 3
-15 11 -45 60 -45 74 0 24 -89 122 -105 115 -6 -2 -26 14 -45 35 -18 22 -42
39 -51 39 -10 0 -39 11 -65 25 -25 13 -68 27 -94 31 -29 4 -59 16 -76 31 -18
15 -37 23 -51 20 -27 -5 -40 8 -45 43 -2 17 -10 26 -25 28 -12 2 -24 11 -27
20 -3 9 -19 26 -36 37 -16 11 -30 25 -30 31 0 18 -36 54 -54 54 -9 0 -32 16
-52 35 l-35 35 18 32 c11 22 17 57 17 108 1 41 5 82 10 90 8 13 7 13 -6 2 -12
-10 -16 -30 -15 -85 0 -40 -4 -81 -11 -92 -27 -48 -28 -49 -48 -28 -62 65 -67
72 -55 86 8 11 7 19 -8 35 -10 12 -26 22 -34 22 -9 0 -43 25 -74 55 -50 47
-63 54 -98 55 -22 0 -56 9 -76 19 -27 15 -48 18 -94 14 -33 -3 -68 -9 -80 -14
-11 -4 13 -5 57 -2 61 5 84 2 114 -12 20 -9 55 -20 77 -23 30 -4 52 -17 96
-58 31 -30 64 -54 73 -54 22 0 33 -19 29 -48 -2 -18 16 -41 75 -99 43 -42 89
-79 103 -82 16 -4 33 -21 43 -41 10 -19 27 -38 38 -42 11 -4 28 -21 38 -38 11
-21 23 -29 35 -26 13 3 17 -2 17 -25 0 -28 21 -48 50 -47 35 2 50 -3 50 -16 0
-16 12 -21 75 -31 56 -8 227 -95 233 -117 2 -10 12 -18 22 -18 16 0 31 -12 85
-70 17 -18 17 -22 5 -31 -13 -8 -10 -13 13 -32 15 -13 27 -27 27 -33 0 -15 47
-35 65 -28 10 4 15 0 15 -10 0 -10 11 -19 28 -22 22 -5 27 -11 28 -36 l1 -31
-57 6 c-31 2 -63 1 -72 -4 -21 -12 -98 21 -98 42 0 24 -10 29 -38 17 -15 -6
-36 -14 -47 -19 -11 -4 -38 -13 -60 -20 -22 -7 -55 -23 -72 -37 -28 -21 -33
-22 -33 -7 0 14 -5 16 -27 10 -16 -3 -29 -11 -31 -16 -5 -12 -32 -12 -32 0 0
7 -32 21 -60 25 -24 4 -80 49 -80 64 0 11 -10 26 -22 35 -19 12 -21 18 -10 28
10 11 12 10 12 -4 0 -9 4 -17 9 -17 4 0 6 12 3 26 -4 21 -2 25 9 19 8 -5 11
-5 7 0 -4 4 -2 15 5 23 10 13 9 14 -3 7 -8 -4 -24 -16 -36 -27 -26 -23 -63
-15 -39 9 8 8 21 11 27 7 9 -5 10 -4 3 4 -12 13 -55 5 -55 -10 0 -5 -6 -3 -14
4 -10 9 -11 15 -2 20 8 6 7 8 -2 8 -7 0 -10 5 -7 10 5 8 11 7 21 -1 8 -7 14
-7 14 -1 0 22 -32 21 -53 -1 -38 -40 -51 -39 -113 9 -67 52 -102 64 -119 40
-7 -9 -17 -16 -22 -16 -14 0 -43 34 -43 51 0 8 -20 27 -44 43 -24 15 -73 58
-110 96 l-67 68 -49 -13 c-55 -15 -60 -12 -60 25 0 33 -28 60 -61 60 -43 0
-101 21 -126 46 -13 13 -32 24 -41 24 -10 0 -28 7 -40 16 -12 8 -22 11 -22 7
0 -15 23 -33 42 -33 10 0 27 -9 39 -21 25 -25 90 -49 133 -49 37 0 66 -29 66
-65 0 -32 6 -34 70 -24 51 8 56 7 70 -13 42 -63 151 -158 181 -158 5 0 9 -8 9
-17 1 -46 68 -73 88 -37 8 15 14 13 53 -14 24 -16 55 -40 69 -51 15 -14 36
-21 55 -20 53 3 63 0 69 -26 4 -15 13 -25 25 -25 19 0 50 -28 90 -80 l24 -32
-30 6 c-22 5 -34 3 -40 -7 -10 -18 -46 -37 -69 -37 -10 0 -43 -12 -74 -26 -46
-21 -61 -34 -85 -77 -18 -33 -22 -47 -12 -38 9 7 17 18 17 23 0 22 82 87 117
93 44 7 113 35 113 45 0 9 120 5 143 -4 9 -5 17 -12 17 -17 0 -14 28 -10 55 7
32 21 33 6 6 -51 -11 -22 -25 -61 -31 -86 -8 -32 -20 -51 -36 -60 -31 -16 -24
-23 8 -8 18 8 30 26 42 67 23 77 49 132 62 132 5 0 25 11 44 25 19 14 41 25
49 25 9 0 42 11 75 25 54 22 59 23 63 6 2 -10 27 -28 54 -41 40 -17 53 -19 64
-10 10 8 27 10 52 5 21 -5 54 -9 73 -10 67 -3 70 -4 70 -28 0 -16 -12 -28 -46
-46 -25 -13 -50 -34 -56 -45 -6 -12 -17 -25 -24 -29 -8 -4 -14 -19 -14 -32 0
-14 -4 -25 -10 -25 -5 0 -10 -13 -10 -28 0 -15 -5 -33 -11 -39 -6 -6 -9 -17
-7 -24 4 -13 46 75 51 109 4 29 58 88 98 107 29 14 42 15 78 5 23 -6 45 -18
48 -26 8 -22 53 -18 53 6 0 10 6 23 13 27 8 4 20 21 28 38 13 27 21 31 103 45
81 14 91 18 107 45 10 17 18 42 18 57 1 15 6 30 11 33 6 3 10 17 10 30 0 19 9
28 35 39 19 8 38 22 41 31 6 15 44 22 44 8 0 -4 -12 -20 -27 -36 -25 -26 -25
-28 -5 -18 12 6 22 16 22 21 0 6 7 10 15 10 8 0 15 4 15 10 0 5 19 29 43 53
36 38 47 44 74 40 17 -3 41 1 53 7 19 10 24 10 32 -4 5 -9 15 -16 23 -16 8 0
19 -8 24 -19 16 -30 77 -60 126 -62 33 -2 44 -6 41 -16 -4 -10 -1 -11 12 -5 9
5 34 10 55 11 35 2 37 1 25 -19 -7 -11 -19 -20 -26 -20 -8 0 -10 5 -6 13 5 8
2 8 -9 -2 -15 -12 -17 -11 -17 3 0 10 -5 14 -10 11 -6 -4 -7 -11 -4 -17 5 -7
1 -9 -9 -5 -31 12 -17 -8 22 -32 l39 -24 -15 -35 c-8 -19 -12 -46 -8 -59 4
-17 1 -25 -12 -29 -51 -16 -58 -23 -19 -21 38 2 39 1 53 -45 7 -27 17 -48 22
-48 5 0 9 -17 9 -38 1 -49 17 -91 39 -99 46 -16 45 -26 -4 -49 -26 -12 -59
-33 -72 -47 -18 -21 -30 -25 -60 -21 -28 3 -32 2 -16 -5 35 -17 58 -12 85 18
23 27 66 51 90 51 5 0 -2 -23 -17 -51 -19 -39 -24 -61 -20 -90 7 -53 -15 -66
-72 -43 -37 15 -42 14 -69 -1 -16 -10 -37 -31 -47 -47 -15 -26 -22 -29 -47
-24 -18 3 -27 2 -23 -4 3 -6 19 -10 35 -10 22 0 33 8 50 35 25 40 61 53 96 35
19 -11 32 -11 61 -2 33 10 40 9 51 -5 6 -9 12 -26 12 -37 0 -35 23 -86 40 -86
22 0 40 -45 33 -85 -4 -24 -2 -35 6 -35 7 0 10 -4 7 -9 -5 -7 14 -21 28 -21 7
0 -2 61 -11 72 -6 7 -13 30 -17 51 -9 47 14 60 48 28 14 -14 34 -21 57 -20
l34 1 -37 9 c-21 5 -46 17 -57 28 -16 16 -26 18 -50 11 -24 -7 -33 -4 -50 14
-12 13 -21 36 -21 53 0 17 -9 41 -19 55 -11 13 -21 33 -23 43 -2 17 4 21 36
23 21 2 43 -1 49 -7 6 -6 21 -11 32 -11 12 0 25 -3 29 -7 4 -4 22 -6 40 -5 23
2 45 -5 71 -22 21 -14 43 -26 49 -26 15 1 -24 30 -40 30 -6 0 -17 6 -23 14 -6
7 -42 16 -80 20 -43 4 -74 13 -82 22 -8 10 -21 13 -36 9 -25 -6 -28 1 -13 39
10 28 37 35 46 12 3 -8 17 -22 30 -31 21 -13 34 -14 81 -5 31 5 64 17 74 26
19 17 44 10 68 -20 8 -9 27 -14 51 -13 30 1 37 4 28 14 -7 9 -15 10 -30 2 -16
-9 -25 -6 -47 14 -38 36 -71 44 -78 19 -5 -21 -39 -32 -97 -32 -43 0 -109 57
-95 82 7 13 4 20 -11 31 -18 12 -19 18 -9 39 10 24 17 26 103 31 97 6 176 30
176 55 0 13 -2 13 -17 -1 -24 -20 -80 -34 -177 -42 -69 -6 -82 -11 -99 -32
l-20 -25 -13 23 c-7 13 -13 39 -14 58 0 19 -6 42 -13 50 -8 9 -22 47 -32 84
-16 64 -17 71 -1 125 28 91 33 100 65 107 32 7 35 14 31 69 -3 51 47 62 92 19
15 -15 28 -32 28 -39 0 -15 25 -25 44 -18 13 5 44 -30 72 -81 36 -64 44 -82
44 -97 0 -9 5 -20 11 -24 8 -4 9 1 4 17 -3 13 -9 33 -12 44 -3 10 -12 25 -19
33 -8 7 -14 22 -14 31 0 10 -7 24 -16 32 -8 7 -22 26 -30 42 -12 22 -20 28
-38 23 -17 -4 -33 5 -69 42 -45 46 -46 48 -26 60 11 7 17 16 14 21 -2 5 1 14
9 20 7 6 21 31 30 54 23 61 131 153 189 162 23 4 54 2 70 -4 15 -6 57 -15 93
-21 36 -6 77 -18 90 -27 18 -11 37 -14 69 -10 l44 7 20 -44 c10 -24 22 -59 26
-77 4 -21 20 -46 42 -65 35 -30 35 -32 16 -43 -15 -8 -30 -8 -52 0 -52 18
-153 -19 -202 -76 -16 -18 -40 -36 -54 -39 -14 -4 -25 -13 -25 -20 0 -8 -18
-30 -40 -50 -22 -20 -36 -36 -32 -36 12 0 92 79 92 90 0 6 9 10 19 10 10 0 33
16 50 36 17 19 55 46 84 59 57 27 66 29 86 16 11 -7 8 -18 -17 -55 -24 -35
-34 -65 -43 -128 -13 -92 -21 -108 -55 -108 -12 0 -35 -5 -51 -11 -15 -7 -40
-11 -54 -10 -17 1 -29 -4 -33 -15 -9 -23 3 -33 15 -12 5 9 17 14 27 11 9 -2
30 3 46 11 35 18 51 13 53 -17 1 -12 7 -23 13 -25 5 -2 10 -18 10 -36 0 -19 9
-45 20 -59 11 -14 20 -34 20 -44 0 -10 14 -33 30 -51 33 -37 39 -84 15 -116
-11 -15 -12 -23 -2 -40 7 -12 11 -57 10 -109 -1 -64 2 -87 10 -84 18 6 28 94
18 152 -5 28 -9 78 -10 112 -1 52 -5 66 -26 87 -14 14 -25 35 -25 47 0 13 -10
33 -21 45 -12 13 -24 40 -26 61 -2 21 -8 40 -13 41 -15 6 -11 25 10 52 11 14
20 37 20 51 0 45 11 39 42 -22 16 -32 39 -64 50 -70 11 -6 24 -24 30 -40 5
-16 16 -29 22 -29 7 0 18 -11 25 -24 11 -20 10 -28 -4 -50 -10 -15 -13 -26 -6
-26 6 0 11 6 11 14 0 8 7 17 15 20 14 5 13 11 -5 46 -11 22 -25 38 -29 35 -5
-2 -14 8 -21 24 -6 16 -22 38 -34 49 -13 11 -38 49 -55 86 -27 57 -30 72 -22
106 20 89 120 162 166 120 50 -46 146 -43 184 6 11 14 25 23 31 19 22 -14 7
-31 -46 -55 -31 -13 -60 -32 -65 -41 -16 -32 -2 -117 23 -141 14 -13 34 -40
47 -61 26 -42 24 -46 -34 -100 l-30 -28 30 18 c31 19 74 62 75 76 0 4 -9 16
-20 27 -11 11 -20 24 -20 30 0 5 -13 22 -30 37 -27 24 -30 32 -30 85 0 47 4
60 18 65 9 3 29 14 43 24 14 10 48 23 75 30 27 7 65 20 85 30 29 14 51 17 111
12 41 -3 81 -11 89 -17 22 -17 39 -63 39 -104 0 -41 17 -96 40 -128 38 -53
137 -82 217 -63 88 21 137 9 166 -41 23 -38 22 -41 -14 -28 -27 9 -36 7 -82
-23 -50 -32 -55 -33 -170 -35 -65 -1 -123 -6 -130 -11 -7 -5 -52 -8 -102 -7
-49 1 -99 -3 -109 -8 -10 -6 -50 -12 -89 -14 -38 -1 -72 -6 -76 -10 -9 -9 155
2 171 12 7 5 56 10 108 11 296 9 336 15 401 54 39 24 52 28 68 20 11 -6 29
-11 40 -11 13 0 26 -11 36 -30 9 -18 33 -37 63 -50 78 -36 132 -23 302 72 39
22 73 32 115 35 54 4 63 2 88 -22 35 -33 49 -65 56 -130 6 -49 6 -50 43 -53
31 -3 39 -8 44 -28 3 -13 4 -31 0 -39 -6 -17 13 -65 26 -65 4 0 8 -4 8 -9 0
-6 -12 -6 -30 -1 -44 13 -55 21 -39 31 10 6 3 9 -21 10 -19 1 -38 1 -42 0 -7
-1 -23 58 -20 72 1 4 -3 7 -8 7 -6 0 -10 7 -10 16 0 8 -4 13 -8 10 -16 -9 -51
24 -54 52 l-4 27 -8 -27 c-8 -28 9 -58 33 -58 6 0 11 -4 11 -9 0 -5 -8 -7 -19
-4 -10 3 -21 0 -25 -5 -3 -5 2 -9 11 -8 9 0 18 -5 21 -13 3 -10 -1 -12 -17 -8
-11 3 -21 1 -21 -5 0 -6 13 -8 30 -6 17 3 30 1 30 -4 0 -4 7 -8 15 -8 9 0 19
-8 22 -17 4 -10 14 -23 22 -30 14 -11 13 -12 -6 -13 -12 0 -25 5 -28 10 -4 6
-11 8 -16 4 -5 -3 -19 6 -29 19 -18 22 -31 26 -106 32 -54 5 -89 4 -93 -2 -11
-18 -72 -45 -87 -39 -8 3 -13 2 -10 -3 3 -5 -4 -11 -17 -14 -92 -23 -114 -30
-129 -44 -10 -9 -18 -20 -18 -24 0 -8 -21 -36 -48 -65 -22 -23 -50 -16 -67 16
-14 27 -20 30 -66 30 -60 0 -92 26 -109 89 -8 30 -18 45 -36 51 -15 6 -27 20
-30 37 -6 32 -41 79 -51 69 -3 -3 1 -14 9 -23 9 -10 23 -35 31 -55 9 -21 23
-38 31 -38 9 0 19 -12 22 -27 18 -71 63 -113 120 -113 43 0 74 -19 74 -45 0
-10 -9 -12 -34 -8 -27 4 -36 1 -50 -18 -9 -13 -16 -28 -16 -34 0 -5 4 -4 9 4
17 27 44 -46 37 -100 -5 -35 -1 -59 13 -96 11 -26 20 -40 20 -30 1 10 -4 28
-11 40 -7 12 -11 50 -10 84 2 42 -3 73 -14 94 -19 38 -7 57 25 40 27 -15 95
-4 120 21 12 10 30 36 41 58 11 22 29 41 42 45 13 3 41 11 63 16 22 6 50 15
63 20 34 13 47 11 32 -5 -10 -13 -8 -13 14 -3 14 7 26 15 26 20 0 4 10 7 23 7
18 0 19 2 7 10 -13 9 -13 11 0 20 19 13 62 9 67 -7 2 -6 -8 -13 -24 -16 l-28
-4 28 -2 c16 0 30 5 33 13 9 23 75 8 97 -20 10 -13 25 -24 32 -24 7 0 15 -6
18 -12 3 -10 9 -10 30 1 22 12 37 12 89 1 140 -27 153 -39 165 -152 5 -47 8
-57 13 -38 4 14 5 41 2 60 -4 29 -2 33 9 22 11 -11 18 -43 20 -103 0 -11 7
-15 25 -11 18 3 24 0 24 -14 0 -11 -4 -25 -9 -33 -15 -24 13 -41 70 -41 47 0
55 3 79 32 l27 32 97 -2 c85 -2 98 0 117 19 l20 20 50 -25 c33 -18 64 -26 98
-26 58 0 70 -14 72 -77 l1 -38 9 30 c9 31 -5 85 -22 85 -5 0 -9 7 -9 15 0 12
-5 12 -23 4 -18 -8 -37 -4 -97 20 -41 17 -78 31 -81 31 -3 0 -17 -9 -30 -21
-17 -14 -31 -19 -49 -14 -63 16 -83 17 -105 5 -21 -11 -74 -11 -115 1 -23 6
-40 41 -29 60 16 30 -29 136 -95 222 -27 35 -28 41 -18 71 7 18 12 41 12 52 0
25 43 74 64 74 15 0 93 37 106 50 3 3 14 10 25 16 23 13 64 90 65 122 0 13 6
30 14 38 15 14 13 52 -3 89 -5 11 -12 37 -16 58 -3 20 -10 37 -14 37 -16 0
-56 132 -47 155 7 18 -8 51 -33 76 -36 36 -61 71 -74 102 -8 18 -22 40 -31 50
-16 15 -19 16 -42 0 -39 -25 -48 -50 -29 -80 19 -29 32 -25 14 5 -10 17 -10
25 4 46 16 23 50 38 45 19 -4 -15 35 -78 80 -132 40 -47 47 -62 53 -117 8 -60
22 -101 53 -154 24 -41 42 -138 28 -152 -7 -7 -12 -24 -12 -39 0 -15 -4 -31
-10 -34 -5 -3 -10 -15 -10 -25 0 -20 -53 -70 -75 -70 -8 0 -26 -11 -41 -25
-15 -14 -38 -25 -51 -25 -33 0 -86 -58 -78 -87 9 -39 -10 -33 -46 13 -18 25
-40 51 -47 59 -7 8 -22 55 -33 106 -16 75 -18 101 -9 147 9 49 8 58 -9 76 -19
21 -31 82 -32 161 -1 35 -2 37 -9 15 -13 -42 1 -152 23 -184 18 -26 19 -34 9
-72 -8 -30 -9 -51 -2 -70 6 -15 13 -49 15 -76 5 -56 36 -127 73 -166 13 -15
31 -43 39 -62 25 -61 37 -84 74 -135 43 -60 48 -74 53 -153 5 -73 7 -78 46
-86 28 -5 29 -7 18 -26 -10 -15 -23 -20 -60 -20 -49 0 -56 7 -38 40 14 26 2
50 -26 50 -21 0 -24 5 -24 35 0 36 -5 44 -76 124 -23 25 -51 57 -63 71 -12 15
-20 19 -21 11 0 -31 -30 12 -30 45 0 48 -19 83 -54 100 -28 14 -29 14 -12 -1
20 -15 20 -15 -1 -15 -17 0 -21 8 -25 50 -3 27 -15 71 -28 97 -12 27 -32 68
-43 92 -12 23 -31 50 -44 58 l-23 15 21 22 c20 21 53 86 44 86 -3 0 -14 -18
-25 -40 -37 -72 -71 -41 -89 80 -7 43 -18 80 -26 86 -8 6 -15 23 -15 37 0 14
-4 28 -10 32 -5 3 -7 12 -3 20 3 8 2 23 -3 32 -4 10 -8 30 -9 45 -3 30 2 33
76 43 40 6 52 3 96 -24 49 -31 96 -40 108 -22 3 6 18 6 38 0 47 -13 65 -11 84
11 10 11 23 20 30 20 8 0 13 12 13 28 0 16 7 37 15 48 22 29 18 50 -5 21 -11
-14 -20 -38 -20 -54 0 -21 -9 -34 -36 -51 -31 -20 -40 -22 -64 -12 -17 7 -38
9 -52 4 -36 -12 -69 -4 -117 28 -41 28 -47 29 -88 18 -24 -6 -48 -8 -53 -5 -4
3 -7 26 -6 53 1 26 -1 59 -5 74 -6 21 -3 27 12 31 10 3 19 12 19 20 0 24 135
36 185 17 15 -6 25 -6 25 0 0 10 -61 24 -100 22 -99 -4 -115 -7 -118 -25 -2
-9 -10 -17 -17 -17 -7 0 -20 -3 -29 -6 -24 -9 -31 39 -10 71 11 16 20 22 24
15 9 -15 32 13 30 37 -4 32 0 40 23 50 25 12 74 7 83 -8 3 -5 28 -9 55 -9 32
0 56 -6 65 -15 9 -8 31 -15 50 -15 22 0 37 -6 41 -15 6 -17 65 -45 95 -45 10
0 33 -7 50 -16 24 -13 36 -14 50 -5 12 7 25 8 43 1 34 -13 82 -13 90 0 3 5 21
10 40 10 19 0 57 9 85 20 28 11 61 20 73 20 12 0 38 11 58 24 30 21 39 35 54
92 15 57 16 75 7 118 -7 28 -14 61 -16 73 -2 13 -9 29 -15 37 -15 18 -6 52 14
60 8 3 15 11 15 19 0 26 50 58 92 60 31 1 44 -4 59 -22 11 -13 22 -22 25 -19
2 3 -4 15 -13 27 -13 15 -33 24 -63 27 -24 2 -47 9 -51 15 -8 14 -39 5 -39
-11 0 -5 5 -10 12 -10 6 0 0 -13 -15 -28 -15 -15 -27 -33 -27 -40 0 -7 -5 -12
-10 -12 -6 0 -16 -11 -22 -25 -9 -20 -8 -29 3 -42 8 -10 23 -51 33 -90 18 -75
17 -90 -16 -176 -11 -29 -62 -63 -87 -58 -7 1 -36 -7 -63 -19 -27 -12 -68 -23
-91 -25 -23 -2 -59 -7 -80 -11 -25 -4 -48 -2 -64 7 -22 12 -25 18 -20 57 3 25
14 53 26 66 12 13 26 39 31 58 6 19 35 62 66 96 31 34 57 68 58 75 2 6 6 20
11 30 4 10 5 36 2 58 -6 48 6 98 33 129 11 13 20 28 20 34 0 6 -11 -2 -25 -18
-32 -37 -49 -99 -41 -153 3 -23 1 -45 -4 -48 -6 -3 -10 -15 -10 -26 0 -11 -17
-36 -38 -57 -52 -51 -92 -106 -92 -125 0 -9 -11 -33 -25 -53 -15 -22 -25 -51
-25 -73 0 -54 -11 -65 -46 -46 -16 8 -39 15 -52 15 -21 0 -51 13 -82 36 -8 6
-33 14 -54 17 -22 4 -44 13 -48 22 -6 10 -24 15 -57 15 -26 0 -56 7 -67 15
-18 14 -18 14 7 15 23 0 69 36 69 54 0 8 18 31 43 54 74 68 143 144 163 178 6
10 23 25 39 34 15 8 36 31 46 49 10 18 27 43 38 55 12 12 21 26 21 31 0 5 10
29 22 53 17 37 22 66 23 159 2 63 -1 111 -6 106 -8 -8 -10 -37 -7 -103 3 -62
-14 -141 -40 -191 -13 -27 -28 -49 -32 -49 -4 0 -15 -20 -24 -45 -10 -25 -24
-45 -32 -45 -16 0 -47 -30 -79 -75 -24 -34 -56 -65 -66 -65 -5 0 -8 38 -8 85
0 47 4 85 9 85 6 0 16 16 24 35 8 19 26 47 40 62 16 17 28 44 31 73 4 25 11
68 16 97 10 51 10 157 0 148 -2 -3 -5 -31 -7 -63 -1 -31 -6 -92 -11 -135 -9
-65 -16 -84 -47 -124 -20 -25 -36 -51 -36 -57 0 -7 -9 -19 -20 -29 -18 -15
-20 -26 -16 -117 l4 -101 -39 -25 c-21 -13 -39 -31 -39 -38 0 -8 -4 -16 -8
-18 -4 -1 -18 -17 -30 -34 -17 -25 -30 -32 -66 -36 -47 -6 -106 -40 -106 -63
0 -7 -9 -15 -20 -18 -11 -3 -20 -9 -18 -14 1 -4 -6 -22 -15 -40 -20 -38 -21
-62 -2 -86 7 -11 17 -38 20 -60 4 -23 11 -50 16 -59 6 -10 5 -19 -1 -23 -26
-16 -2 -212 31 -252 14 -16 17 -13 -44 -48 -30 -17 -45 -31 -39 -37 6 -6 19 0
36 17 40 40 58 30 78 -44 10 -36 22 -69 28 -75 5 -5 10 -18 10 -28 0 -10 13
-24 28 -32 23 -12 52 -52 52 -71 0 -3 -28 -5 -62 -5 -75 1 -133 -12 -157 -34
-10 -9 -22 -16 -28 -16 -6 0 -17 -7 -24 -17 -20 -23 -114 -63 -150 -63 -17 0
-40 5 -52 12 -29 15 -84 72 -126 130 -19 27 -44 49 -60 53 -59 16 -110 16
-146 1 -60 -26 -88 -21 -124 21 -25 29 -31 45 -31 83 0 25 4 50 8 55 5 6 19
38 32 73 21 59 22 63 5 82 -20 22 -13 56 16 65 10 4 19 11 19 17 0 14 88 98
103 98 7 1 37 26 68 58 47 47 58 64 62 100 3 23 2 42 -3 42 -4 0 -10 14 -14
31 -3 16 -13 38 -22 46 -17 17 -17 15 4 175 4 31 5 65 1 75 -3 10 1 53 9 97
12 60 13 83 4 96 -6 11 -19 61 -28 112 -9 51 -21 97 -25 103 -5 5 -9 16 -9 25
0 8 -7 28 -15 44 -8 15 -15 34 -15 42 0 22 -43 99 -48 85 -4 -11 21 -78 49
-133 5 -10 9 -25 9 -35 0 -9 6 -24 14 -32 7 -9 19 -51 25 -94 6 -43 17 -92 25
-110 11 -28 11 -44 0 -96 -19 -95 -23 -101 -40 -68 -8 15 -18 27 -23 27 -5 0
-16 16 -26 36 -9 19 -26 39 -38 43 -39 15 -72 54 -112 134 -47 93 -58 89 -15
-6 34 -76 80 -132 114 -141 14 -3 28 -18 34 -33 6 -16 30 -48 54 -73 47 -50
47 -50 32 -192 -6 -57 -4 -71 14 -100 12 -19 23 -56 25 -84 4 -44 1 -52 -26
-82 -17 -17 -39 -32 -49 -32 -10 0 -18 -6 -18 -14 0 -8 -15 -25 -32 -37 -18
-12 -61 -51 -94 -86 -45 -46 -64 -59 -68 -48 -3 8 -12 15 -21 15 -18 0 -19 11
-2 29 9 11 9 14 0 18 -15 5 2 43 36 82 24 28 26 49 7 76 -17 25 -26 86 -27
188 -1 66 -4 80 -23 95 -32 26 -43 57 -60 174 -11 76 -13 114 -6 133 14 37 12
44 -5 15 -17 -29 -19 -97 -5 -135 5 -14 12 -49 14 -78 5 -64 19 -101 44 -118
22 -17 35 -46 22 -54 -5 -3 -5 -18 -1 -33 5 -15 5 -36 1 -47 -4 -12 -2 -32 6
-47 8 -15 12 -38 9 -51 -4 -15 -1 -28 9 -36 21 -18 20 -65 -1 -82 -21 -18 -43
-71 -43 -104 0 -18 -7 -28 -24 -35 -15 -5 -27 -20 -31 -39 l-7 -31 -111 5
c-98 5 -113 3 -131 -13 -33 -30 -53 -32 -79 -11 -33 25 -38 24 -72 -11 -23
-24 -37 -30 -71 -30 -37 0 -50 7 -103 53 -34 28 -61 60 -61 70 0 11 -6 31 -14
45 -8 15 -22 47 -32 71 -25 60 -49 88 -95 111 -33 17 -39 25 -39 53 0 28 13
45 101 129 78 75 108 98 129 98 19 0 42 15 81 54 62 62 124 106 149 106 10 0
23 15 32 39 12 29 34 52 82 87 50 36 66 54 66 71 0 14 4 32 9 41 5 9 12 60 15
112 11 170 15 185 46 198 15 7 39 23 52 35 13 12 42 34 64 50 61 41 115 123
113 169 -1 18 -4 16 -13 -12 -21 -65 -51 -102 -134 -166 -45 -35 -86 -64 -90
-64 -11 0 -13 16 -12 138 1 56 8 127 16 158 17 67 17 92 0 44 l-13 -35 -6 49
c-7 49 -21 76 -39 76 -5 0 -2 -10 6 -22 9 -13 16 -43 16 -69 0 -26 4 -49 8
-51 5 -1 4 -55 -3 -118 -7 -65 -8 -122 -3 -132 5 -10 2 -56 -6 -110 -8 -51
-15 -111 -16 -133 -2 -50 -4 -68 -14 -128 -8 -43 -13 -50 -61 -80 -50 -30 -83
-69 -95 -111 -3 -11 -19 -24 -35 -29 -33 -11 -115 -70 -161 -116 -16 -17 -38
-31 -49 -31 -33 0 -75 -32 -162 -120 -63 -64 -83 -91 -83 -111 0 -15 -3 -34
-6 -43 -4 -10 5 -20 28 -30 18 -8 44 -23 57 -34 l24 -19 -26 -18 c-25 -16 -28
-16 -60 4 -19 12 -44 21 -55 21 -29 0 -114 19 -130 29 -12 7 -11 13 1 38 9 16
23 35 31 42 9 8 16 19 16 25 -1 6 -10 0 -21 -14 -11 -14 -32 -37 -45 -52 l-24
-28 -47 18 c-36 13 -53 27 -68 54 l-20 37 43 42 c23 23 42 46 42 51 0 4 6 8
13 8 25 0 54 45 60 92 4 26 3 49 -2 52 -4 3 -9 -16 -10 -41 -1 -48 -30 -93
-57 -93 -7 0 -15 -8 -18 -18 -8 -25 -69 -69 -74 -53 -2 6 -20 18 -40 27 -46
19 -72 42 -72 65 0 21 -28 39 -62 39 -33 1 -53 20 -56 53 -1 15 -7 37 -12 47
-8 15 -7 26 6 44 11 18 15 48 15 110 l-1 84 30 11 c19 6 30 17 30 29 0 10 9
29 19 41 11 13 22 28 24 34 3 8 11 5 26 -7 52 -47 201 -25 201 29 0 13 5 27
10 30 6 3 10 12 10 18 -1 19 -30 -25 -30 -45 0 -41 -121 -65 -168 -32 -28 19
-27 32 1 65 22 25 120 79 143 79 6 0 17 7 24 15 18 22 37 18 68 -12 15 -15 46
-45 70 -65 38 -34 46 -37 85 -32 45 6 107 41 107 62 0 6 6 12 13 12 10 0 101
99 126 137 3 6 19 13 35 17 15 4 30 15 33 26 3 11 17 22 34 25 20 5 31 14 35
31 3 13 13 28 21 33 9 4 17 23 19 42 3 31 2 33 -11 15 -8 -10 -12 -22 -10 -26
3 -4 -2 -13 -10 -20 -8 -7 -15 -18 -15 -25 0 -17 -33 -45 -54 -45 -10 0 -20
-9 -23 -20 -3 -11 -15 -23 -27 -26 -12 -3 -35 -22 -52 -42 -38 -47 -121 -131
-158 -160 -20 -15 -42 -22 -72 -22 -40 0 -49 5 -106 60 -33 33 -67 60 -73 60
-12 0 -66 -22 -95 -39 -8 -5 -34 -17 -57 -27 -24 -9 -43 -20 -43 -23 0 -3 -23
-31 -51 -61 -27 -30 -53 -68 -56 -83 -7 -37 -43 -52 -61 -26 -10 15 -6 24 32
64 39 40 87 135 68 135 -3 0 17 22 46 49 29 27 52 53 52 58 0 5 20 29 44 54
25 24 47 54 50 65 3 12 22 29 42 39 20 9 43 24 53 33 9 10 29 23 43 31 15 8
34 31 42 52 9 22 20 39 26 39 19 0 130 120 136 147 4 16 12 35 19 43 31 38 37
66 36 169 -1 74 3 119 14 150 9 26 12 48 6 55 -5 6 -8 38 -7 72 1 44 8 68 24
91 27 38 28 50 3 26 -34 -33 -43 -63 -40 -146 1 -45 -3 -106 -9 -134 -7 -30
-9 -86 -5 -131 6 -81 -5 -121 -41 -151 -9 -8 -16 -23 -16 -36 0 -12 -9 -30
-20 -40 -19 -18 -20 -17 -20 3 0 11 5 33 11 49 6 16 10 89 10 167 -1 119 -4
143 -21 175 -11 20 -25 50 -29 66 l-9 30 -1 -37 c-1 -20 4 -40 10 -43 22 -14
31 -63 34 -180 3 -114 -2 -160 -28 -250 -10 -36 -50 -85 -70 -85 -4 0 -14 -17
-23 -39 -8 -21 -27 -44 -41 -52 -15 -8 -38 -24 -51 -36 -14 -13 -32 -23 -41
-23 -9 0 -27 -17 -41 -38 -13 -20 -42 -55 -62 -77 -21 -22 -38 -44 -38 -48 0
-5 -22 -29 -50 -54 -27 -25 -50 -51 -50 -58 0 -30 -40 -103 -72 -134 l-35 -33
5 -115 c3 -81 1 -122 -8 -138 -8 -15 -10 -34 -5 -52 4 -15 7 -40 6 -54 -3 -33
39 -69 80 -69 18 0 32 -7 39 -19 15 -28 14 -29 -27 -29 -49 0 -141 51 -154 85
-5 14 -18 32 -28 42 -18 15 -32 57 -52 151 -11 56 -30 103 -43 112 -6 4 -2 10
9 14 23 8 77 65 70 72 -3 3 -18 -9 -33 -26 l-28 -31 -18 28 c-14 21 -28 28
-53 29 -35 1 -52 13 -71 48 -9 18 -7 25 13 44 14 13 28 32 31 44 9 27 23 39
64 56 42 16 60 29 60 43 0 5 -8 4 -17 -4 -10 -8 -35 -22 -55 -32 -22 -9 -48
-33 -62 -56 -33 -51 -44 -57 -55 -29 -5 13 -14 37 -21 53 -7 17 -14 43 -15 60
-2 16 -8 31 -14 33 -22 7 -10 42 29 83 22 23 54 70 72 106 17 35 38 69 45 75
7 6 13 19 13 30 0 11 5 29 12 41 19 34 58 161 46 149 -12 -12 -37 -74 -43
-107 -7 -33 -30 -92 -42 -107 -7 -8 -20 -32 -30 -54 -27 -57 -53 -94 -95 -132
-31 -28 -37 -39 -32 -61 4 -14 11 -30 15 -36 5 -5 9 -18 9 -28 0 -10 6 -33 14
-50 8 -18 19 -50 24 -72 6 -22 14 -51 18 -64 6 -21 5 -22 -15 -12 -11 7 -21
17 -21 24 0 22 -48 66 -67 61 -22 -6 -53 50 -53 93 0 23 -31 103 -61 157 -16
28 -25 166 -11 166 6 0 14 23 18 50 6 48 8 50 38 50 17 0 42 9 56 19 19 16 24
27 22 60 -2 25 2 41 8 41 6 0 8 -4 5 -10 -3 -5 -2 -10 4 -10 5 0 13 10 17 22
3 12 17 33 30 47 13 14 24 38 24 53 0 31 27 94 50 118 8 8 26 36 39 61 l24 46
75 -5 75 -5 -7 29 c-10 39 -10 50 -3 114 11 108 43 139 67 64 6 -19 18 -38 26
-42 25 -14 70 -2 102 28 17 15 56 38 86 51 31 12 56 26 56 31 0 4 5 8 11 8 6
0 17 7 26 15 8 8 18 13 23 10 4 -3 11 2 14 11 3 8 10 13 15 10 5 -4 16 0 24 8
8 8 17 13 19 10 3 -2 11 3 18 12 10 11 11 20 3 32 -11 18 6 55 36 78 8 6 11
16 7 23 -11 17 12 40 34 34 11 -3 20 -1 20 5 0 5 9 12 20 15 12 3 20 14 20 27
0 25 25 49 51 50 9 0 36 24 60 54 24 30 53 59 64 64 24 12 66 92 69 132 1 8
18 23 38 32 48 23 67 53 75 119 3 30 12 59 18 64 7 6 19 61 27 123 12 89 12
110 2 100 -8 -8 -15 -51 -18 -108 -3 -64 -9 -98 -19 -105 -7 -5 -17 -37 -21
-70 -7 -65 -22 -88 -77 -116 -29 -14 -38 -26 -44 -56 -9 -52 -32 -92 -58 -104
-19 -9 -69 -65 -95 -105 -4 -6 -23 -14 -42 -17 l-35 -7 -1 45 c-1 25 3 45 9
45 6 0 8 18 4 46 -4 40 -1 50 29 89 31 42 34 50 36 135 2 49 6 90 9 90 4 0 9
9 12 20 7 27 -4 25 -25 -4 -14 -19 -15 -31 -8 -57 5 -18 6 -37 1 -43 -5 -6 -9
-29 -8 -51 0 -29 -9 -53 -33 -88 -26 -39 -31 -55 -27 -83 7 -42 -7 -51 -49
-29 -16 8 -33 15 -38 15 -18 0 -56 52 -56 76 0 13 -4 24 -10 24 -5 0 -10 5
-10 11 0 5 4 8 8 5 4 -2 9 5 9 17 2 15 0 18 -6 9 -12 -20 -30 64 -24 111 3 20
1 37 -3 37 -5 0 -8 33 -6 74 3 68 2 75 -18 86 -32 17 -41 2 -43 -73 -2 -53 -6
-69 -22 -82 -16 -12 -17 -14 -2 -9 12 5 17 1 17 -14 0 -11 -6 -23 -12 -26 -7
-3 -4 -4 7 -3 18 2 20 -5 23 -63 3 -53 0 -67 -15 -78 -17 -14 -16 -14 5 -9 16
4 29 -1 40 -14 9 -10 21 -19 28 -19 15 0 76 -78 70 -89 -3 -5 1 -23 10 -40 27
-55 29 -106 5 -139 -11 -17 -21 -36 -21 -43 0 -24 -64 -119 -80 -119 -18 0
-51 -32 -69 -67 -6 -13 -18 -23 -25 -23 -7 0 -24 -8 -37 -19 -13 -10 -35 -22
-49 -26 -14 -4 -40 -21 -58 -38 -27 -26 -35 -29 -42 -18 -7 12 -11 12 -24 2
-20 -16 -46 1 -46 30 0 19 -27 39 -54 39 -20 0 -34 -49 -41 -151 -7 -86 -8
-87 -36 -93 -16 -3 -41 -1 -56 5 -23 9 -29 6 -49 -18 -13 -15 -23 -34 -24 -40
0 -7 -4 -13 -8 -13 -15 0 -82 -140 -82 -171 0 -21 -11 -37 -46 -66 -42 -35
-45 -41 -40 -73 5 -33 3 -37 -29 -54 -19 -10 -40 -16 -48 -13 -8 3 -20 2 -27
-3 -8 -5 -20 1 -34 15 -12 14 -39 27 -65 32 -43 8 -45 10 -66 68 -27 74 -43
105 -55 105 -14 0 -12 34 1 47 7 7 14 49 16 95 3 63 9 90 25 112 21 30 24 57
13 161 -4 45 6 85 42 164 15 33 19 50 10 43 -14 -12 -35 -58 -56 -123 -6 -19
-11 -77 -11 -129 0 -73 -4 -97 -17 -112 -11 -12 -17 -39 -19 -81 -4 -128 -24
-174 -70 -166 -22 4 -45 -2 -40 -10 11 -18 -21 -19 -44 -1 -12 9 -31 15 -40
13 -10 -3 -32 9 -53 26 -19 17 -39 31 -45 31 -5 0 -12 6 -15 14 -3 8 -31 26
-61 41 -31 15 -59 32 -62 36 -3 5 -26 20 -52 34 -33 17 -41 24 -27 25 12 1 15
4 7 7 -10 4 -9 8 4 17 13 10 14 15 4 21 -8 5 -11 4 -7 -2 4 -5 -5 -16 -18 -23
-22 -12 -28 -10 -59 16 -19 16 -34 34 -33 39 1 12 -20 91 -35 128 -6 15 -16
27 -23 27 -38 0 -120 142 -109 186 9 36 89 112 121 116 33 4 45 35 48 132 1
37 7 71 12 75 6 3 17 20 26 36 9 17 29 42 45 57 16 15 35 42 42 60 8 18 20 37
27 41 7 4 13 18 13 30 0 31 18 47 52 47 17 0 28 5 28 13 0 8 11 19 25 25 14 6
25 16 25 23 0 6 18 26 40 46 41 37 66 92 56 120 -4 9 4 37 16 62 15 30 23 65
23 101 1 54 1 55 28 53 23 -1 27 2 27 25 0 53 20 102 41 102 11 0 38 9 60 21
23 11 43 18 46 15 8 -7 41 31 48 55 4 11 11 19 16 19 5 0 18 14 29 32 16 27
17 35 6 48 -7 8 -16 38 -20 65 -6 48 -5 51 25 70 16 11 34 19 40 18 5 -2 9 4
9 12 0 14 -3 14 -27 1 -16 -8 -38 -25 -50 -38 -19 -20 -21 -28 -12 -72 5 -27
14 -55 20 -62 12 -15 10 -20 -39 -84 -29 -38 -46 -49 -111 -72 -70 -25 -76
-26 -79 -9 -5 33 16 172 29 187 7 9 14 23 15 31 1 8 10 30 19 50 9 19 14 45
11 58 -4 14 0 27 9 35 8 7 15 18 15 25 0 7 7 18 15 25 8 7 15 19 15 26 0 8 16
29 36 47 31 28 37 41 42 85 3 35 9 52 18 52 13 0 15 6 18 50 2 27 20 46 74 76
54 30 74 62 54 87 -6 7 -14 28 -17 47 -3 18 -16 54 -29 79 -18 38 -28 47 -53
49 -18 2 -37 10 -43 18 -7 8 -20 14 -29 14 -11 -1 -7 -8 14 -25z m2212 -4650
c15 -18 15 -23 -6 -80 -13 -33 -26 -89 -30 -125 l-6 -65 -19 35 c-11 19 -21
55 -22 80 -5 84 -12 141 -17 146 -3 3 9 19 26 34 29 27 33 28 45 12 7 -9 20
-26 29 -37z"/>
<path d="M3947 5863 c-4 -3 -7 -14 -7 -23 0 -9 -13 -31 -29 -49 -33 -37 -31
-48 18 -124 20 -31 23 -45 18 -86 -4 -31 -1 -55 6 -65 16 -22 13 -136 -3 -146
-7 -4 -10 -12 -7 -17 3 -5 -3 -22 -14 -39 -10 -16 -19 -36 -19 -45 0 -8 -13
-28 -30 -44 -16 -16 -30 -36 -30 -44 1 -12 3 -11 12 4 6 11 24 31 40 44 15 13
28 31 28 39 0 8 11 38 24 66 24 52 34 169 16 191 -5 6 -7 35 -6 65 2 43 -2 61
-21 88 -12 19 -23 41 -23 48 0 8 -4 14 -10 14 -5 0 -10 7 -10 15 0 8 5 15 11
15 5 0 19 21 30 46 19 42 22 63 6 47z"/>
<path d="M2703 4880 c-7 -11 -13 -26 -13 -33 0 -8 -9 -22 -20 -32 -12 -10 -18
-25 -15 -33 3 -8 -2 -25 -10 -39 -19 -29 -7 -56 35 -78 17 -9 38 -33 49 -57
17 -38 17 -44 4 -65 -10 -15 -12 -33 -8 -53 6 -26 11 -31 33 -28 14 2 27 10
30 18 4 12 2 13 -9 3 -7 -7 -16 -13 -20 -13 -13 0 -19 51 -8 71 16 30 -13 96
-62 139 l-39 35 14 41 c8 22 24 57 36 77 23 40 26 85 3 47z"/>
<path d="M1580 4806 c-6 -8 -19 -12 -27 -9 -11 4 -14 2 -9 -5 4 -7 0 -19 -8
-28 -25 -25 -19 -39 20 -42 21 -1 43 -10 51 -20 13 -15 14 -14 7 13 -9 39 -9
55 0 83 9 26 -14 31 -34 8z"/>
<path d="M2920 4326 c0 -8 -2 -23 -5 -33 -3 -11 -1 -9 6 5 7 12 21 22 34 22
21 0 110 -61 147 -100 26 -28 49 -25 93 10 21 17 31 30 23 30 -8 0 -23 -9 -33
-20 -25 -27 -57 -25 -83 5 -12 14 -28 25 -34 25 -7 0 -29 16 -48 35 -25 26
-43 35 -67 35 -22 0 -33 -5 -33 -14z"/>
<path d="M393 4202 c-8 -5 8 -15 45 -27 41 -14 72 -34 109 -71 46 -45 59 -52
105 -58 31 -4 70 -18 93 -33 56 -37 205 -46 205 -13 0 6 -11 5 -27 -1 -39 -15
-118 -2 -167 26 -23 13 -63 27 -91 31 -44 6 -57 14 -108 65 -37 38 -66 59 -81
59 -12 0 -31 7 -42 15 -22 17 -25 17 -41 7z"/>
<path d="M4080 3764 c-8 -19 -7 -31 1 -41 9 -10 9 -17 1 -25 -7 -7 -12 -20
-12 -31 0 -10 -9 -39 -19 -65 -24 -57 -35 -185 -14 -156 7 10 13 39 13 64 0
26 10 73 21 106 18 49 33 174 22 174 -2 0 -8 -12 -13 -26z"/>
<path d="M4460 3558 c0 -4 5 -8 10 -8 6 0 9 -5 8 -12 -2 -6 6 -14 16 -16 18
-4 19 -3 3 13 -10 9 -15 20 -13 24 3 4 -1 8 -9 8 -8 0 -15 -4 -15 -9z"/>
<path d="M4595 3489 c-13 -19 4 -59 25 -59 11 0 20 7 20 15 0 8 -7 15 -15 15
-8 0 -15 5 -15 10 0 6 5 10 10 10 6 0 10 5 10 10 0 13 -27 13 -35 -1z"/>
<path d="M3015 3465 c4 -11 9 -27 10 -35 1 -8 7 -27 13 -42 6 -15 12 -48 13
-75 4 -98 6 -101 58 -102 25 0 87 -4 136 -9 67 -7 93 -6 100 2 6 7 33 18 60
26 28 7 54 16 58 20 14 13 -103 -18 -118 -30 -18 -15 -171 -8 -188 9 -15 15
-54 14 -63 -1 -10 -16 -22 17 -24 62 -1 49 -34 168 -50 183 -11 10 -12 8 -5
-8z"/>
<path d="M4517 3053 c-4 -3 -7 -14 -7 -24 0 -10 -10 -27 -21 -38 -22 -20 -56
-100 -66 -156 -7 -33 -33 -59 -47 -45 -4 4 -22 4 -39 -1 -47 -13 -94 21 -115
85 -21 61 -38 73 -83 58 l-34 -11 32 3 c39 3 70 -25 75 -69 4 -41 80 -100 110
-84 11 6 29 8 40 6 25 -7 68 12 68 29 0 31 51 167 69 182 10 9 22 29 25 45 6
27 5 32 -7 20z"/>
<path d="M6070 2580 c-8 -20 -10 -47 -6 -78 4 -26 11 -92 15 -147 8 -105 27
-207 43 -239 7 -13 5 -24 -10 -40 -30 -32 -49 -93 -34 -108 9 -9 12 -6 12 15
0 61 51 126 151 190 15 10 31 28 35 40 4 12 21 40 39 62 36 44 101 187 82 179
-7 -2 -21 -28 -31 -57 -15 -43 -64 -128 -86 -147 -3 -3 -11 -18 -18 -33 -6
-15 -20 -31 -29 -34 -10 -4 -31 -20 -47 -35 -15 -16 -33 -27 -40 -25 -20 6
-18 47 3 88 12 22 21 55 21 74 0 49 21 137 38 157 9 11 12 27 8 44 -4 16 -2
32 6 42 11 13 11 14 -2 10 -9 -2 -16 -19 -18 -39 -1 -19 -7 -43 -12 -54 -9
-20 -23 -86 -35 -158 -7 -43 -25 -87 -35 -87 -13 0 -31 107 -30 176 1 38 -3
83 -8 99 -11 37 -7 94 7 108 13 13 14 27 2 27 -5 0 -14 -14 -21 -30z"/>
<path d="M9243 1930 c-20 -58 -22 -72 -13 -135 6 -38 15 -87 21 -107 11 -41 4
-81 -16 -98 -13 -11 -14 -148 0 -169 3 -6 2 -18 -4 -28 -12 -23 -32 -121 -31
-153 0 -17 -15 -42 -41 -70 -82 -91 -86 -137 -20 -242 34 -54 43 -78 48 -132
4 -44 2 -70 -6 -80 -8 -9 -10 -34 -6 -72 8 -67 11 -74 31 -74 8 0 17 -13 21
-31 3 -17 12 -33 19 -36 22 -8 74 -92 68 -108 -4 -10 4 -19 27 -29 27 -11 30
-15 13 -19 -10 -2 1 -5 26 -6 35 -1 48 3 58 19 7 11 20 20 30 20 9 0 42 14 72
30 l54 30 24 -23 c14 -14 24 -36 24 -55 1 -19 6 -32 14 -32 15 0 11 49 -8 79
-25 41 -108 51 -122 15 -12 -31 -86 -5 -86 30 0 9 -7 19 -16 23 -11 4 -14 14
-10 32 5 25 5 25 -6 4 -11 -23 -10 -28 22 -80 l19 -32 -22 -16 c-48 -33 -80
-17 -113 56 -15 32 -37 65 -51 74 -13 9 -21 20 -18 25 3 5 -7 20 -21 34 -25
23 -50 107 -35 121 8 9 12 36 12 96 1 55 2 56 37 69 45 16 129 89 152 133 9
18 23 57 30 87 7 30 18 67 26 82 16 30 18 66 5 87 -6 10 -9 -2 -9 -33 1 -26
-3 -51 -9 -54 -6 -4 -13 -20 -15 -37 -6 -30 -21 -75 -44 -130 -14 -32 -92
-103 -134 -121 -31 -14 -49 -8 -61 20 -5 11 -18 35 -29 51 -29 45 -40 73 -40
106 0 34 16 70 36 82 22 13 76 96 69 108 -4 5 -2 16 4 23 6 7 12 36 14 64 2
28 6 54 8 57 3 3 5 46 3 95 -2 73 1 100 17 136 14 30 17 49 11 57 -30 39 -40
250 -12 267 7 4 10 18 8 31 -2 17 -9 6 -25 -41z"/>
<path d="M2346 1326 c4 -34 15 -61 37 -88 16 -21 33 -38 37 -38 4 0 13 -11 20
-25 8 -14 25 -28 39 -32 14 -3 31 -12 38 -19 7 -7 39 -18 71 -24 67 -14 95
-27 86 -41 -3 -5 -1 -16 6 -24 6 -7 12 -42 12 -76 1 -64 11 -92 61 -162 12
-18 25 -33 30 -35 4 -2 7 -8 7 -14 0 -13 52 -68 65 -68 5 0 23 -20 39 -45 30
-49 103 -125 119 -125 5 0 -5 13 -22 29 -17 16 -31 34 -31 39 0 6 -9 14 -20
17 -11 3 -20 11 -20 18 0 15 -43 77 -53 77 -12 0 -37 27 -37 39 0 6 -5 10 -12
9 -6 -2 -14 6 -16 16 -2 11 -15 31 -28 45 -13 14 -24 31 -24 38 0 6 -3 13 -7
15 -21 9 -39 67 -38 118 1 30 -4 67 -11 81 -7 15 -11 29 -9 31 8 8 -38 25
-100 38 -45 10 -55 15 -40 20 15 5 9 9 -27 14 -38 6 -52 14 -84 52 -22 26 -47
55 -56 67 -10 11 -18 29 -19 41 0 12 -5 30 -10 41 -6 14 -7 5 -3 -29z"/>
<path d="M1899 1327 c-9 -7 -31 -41 -50 -77 -28 -55 -32 -74 -30 -125 2 -54
-1 -65 -33 -113 -40 -60 -44 -70 -18 -44 42 42 64 95 66 161 2 71 37 160 72
186 11 7 17 16 14 18 -3 3 -12 0 -21 -6z"/>
<path d="M5335 1192 c-16 -11 -36 -26 -44 -35 -7 -10 -20 -17 -27 -17 -8 0
-35 -20 -60 -45 -40 -40 -50 -45 -78 -40 -21 4 -49 -1 -81 -14 -28 -11 -45
-20 -39 -20 6 -1 27 5 46 13 21 9 50 12 76 9 28 -4 42 -2 42 6 0 6 6 11 13 11
8 0 27 16 43 35 16 19 35 35 43 35 7 0 31 16 52 35 46 41 86 43 80 4 -1 -13
-7 -32 -12 -41 -12 -22 -11 -38 2 -38 6 0 9 6 6 13 -2 6 4 27 15 45 20 32 20
33 2 47 -25 19 -43 18 -79 -3z"/>
<path d="M5397 1083 c-14 -4 -17 -14 -16 -53 3 -57 -12 -98 -63 -167 -21 -29
-38 -59 -38 -68 0 -8 -6 -16 -12 -17 -7 0 -24 -2 -38 -4 -14 -1 -56 -9 -95
-17 -125 -27 -154 -28 -165 -6 -13 23 -43 25 -60 4 -7 -8 -22 -16 -34 -16 -16
-1 -17 -2 -4 -6 10 -2 27 2 39 11 24 16 49 11 49 -11 0 -17 45 -13 178 13 40
8 77 12 82 9 14 -9 66 21 74 42 9 25 30 60 49 81 27 29 59 112 54 138 -2 13 0
24 5 24 5 0 8 8 6 18 -4 21 50 30 64 10 8 -10 9 -10 5 2 -4 15 -47 22 -80 13z"/>
<path d="M9471 895 c-1 -25 10 -61 29 -98 l29 -58 -20 -40 c-12 -21 -25 -42
-30 -45 -5 -3 -9 -15 -9 -27 0 -12 -10 -38 -21 -57 -16 -26 -17 -31 -5 -20 22
17 44 62 39 76 -2 6 6 19 17 29 11 10 20 26 20 36 0 10 5 21 10 24 16 10 12
37 -15 89 -14 27 -25 59 -26 70 0 12 -4 30 -9 41 -7 16 -9 11 -9 -20z"/>
<path d="M4000 911 c0 -4 -16 -15 -35 -24 -19 -9 -41 -30 -50 -46 -8 -17 -29
-38 -46 -47 -17 -8 -29 -18 -26 -20 10 -10 69 35 93 70 14 20 31 36 38 36 8 0
19 7 26 15 7 8 17 12 24 8 6 -4 34 -8 61 -9 30 -1 65 -10 88 -23 41 -23 74
-26 97 -10 12 8 9 9 -12 5 -26 -6 -98 20 -98 34 0 8 -1 8 -92 14 -38 2 -68 1
-68 -3z"/>
<path d="M6709 656 c-8 -9 -42 -16 -115 -26 -34 -5 -88 -19 -120 -31 -70 -25
-90 -26 -115 -3 -15 14 -23 15 -41 5 -22 -10 -22 -11 -2 -6 14 4 24 0 27 -9 8
-19 61 -30 86 -17 12 6 30 15 40 21 11 5 62 14 113 20 51 6 101 15 110 20 10
6 19 6 23 0 7 -11 -38 -78 -68 -103 -22 -18 -21 -18 11 -2 17 8 32 22 32 29 0
7 7 20 16 27 9 7 20 23 24 35 13 32 60 40 102 16 39 -22 112 -34 206 -32 56 0
116 -16 181 -49 27 -14 55 -59 45 -74 -5 -7 1 -1 13 13 20 22 34 54 16 37 -3
-4 -16 2 -27 12 -12 11 -53 33 -93 49 -59 23 -81 27 -121 22 -27 -3 -58 -3
-68 1 -11 4 -39 8 -63 8 -27 1 -52 8 -63 18 -19 17 -136 32 -149 19z"/>
<path d="M5212 584 c27 -11 41 -25 50 -49 10 -29 19 -36 60 -45 26 -7 51 -16
54 -21 3 -5 27 -9 53 -9 37 0 52 5 67 23 19 22 19 22 -2 5 -27 -23 -52 -23
-116 2 -29 11 -63 20 -75 20 -13 0 -22 3 -22 8 6 35 -41 82 -80 81 -24 0 -22
-2 11 -15z"/>
<path d="M8628 522 c-16 -2 -28 -8 -28 -13 0 -10 73 -10 110 0 22 7 21 8 -15
12 -22 2 -52 3 -67 1z"/>
</g>
</svg>
